<?xml version="1.0" encoding="UTF-8" standalone="no"?>
<!DOCTYPE svg PUBLIC "-//W3C//DTD SVG 1.1//EN" "http://www.w3.org/Graphics/SVG/1.1/DTD/svg11.dtd">
<svg width="100%" height="100%" viewBox="0 0 2735 727" version="1.1" xmlns="http://www.w3.org/2000/svg" xmlns:xlink="http://www.w3.org/1999/xlink" xml:space="preserve" xmlns:serif="http://www.serif.com/" style="fill-rule:evenodd;clip-rule:evenodd;stroke-linejoin:round;stroke-miterlimit:2;">
    <g id="Artboard1" transform="matrix(1.10243,0,0,0.207067,0,0)">
        <rect x="0" y="0" width="2480.32" height="3507.87" style="fill:none;"/>
        <g transform="matrix(1.54524,0,0,8.22687,940.489,-252.176)">
            <path d="M324,37C357.078,84 405.079,177.094 393,252C379.571,335.277 293.783,397.3 201,390L194,453L164,452C170.396,364.201 187.986,278.469 272,205C209.05,240.359 168.717,295.359 151,370C132.089,358.902 119.59,308.984 118,267C116.626,230.721 149.662,173.043 200,142C237.837,118.666 303.514,102.143 324,37Z"/>
        </g>
        <g transform="matrix(0.90709,0,0,4.82935,-897.542,-4075.53)">
            <g transform="matrix(300,0,0,300,987.691,1348.86)">
                <path d="M0.334,0.01C0.292,0.01 0.254,0.004 0.219,-0.008C0.184,-0.019 0.153,-0.036 0.128,-0.058C0.103,-0.079 0.083,-0.105 0.068,-0.134C0.064,-0.142 0.064,-0.15 0.068,-0.157C0.071,-0.164 0.077,-0.169 0.086,-0.172C0.093,-0.175 0.101,-0.174 0.108,-0.171C0.115,-0.168 0.121,-0.162 0.125,-0.155C0.137,-0.134 0.153,-0.115 0.172,-0.099C0.192,-0.083 0.216,-0.071 0.243,-0.063C0.27,-0.054 0.3,-0.05 0.334,-0.05C0.372,-0.05 0.405,-0.056 0.433,-0.069C0.46,-0.082 0.482,-0.1 0.497,-0.125C0.511,-0.15 0.519,-0.18 0.519,-0.215C0.519,-0.259 0.503,-0.296 0.471,-0.327C0.44,-0.357 0.392,-0.376 0.327,-0.385C0.252,-0.396 0.194,-0.42 0.152,-0.458C0.11,-0.495 0.089,-0.541 0.089,-0.595C0.089,-0.634 0.099,-0.669 0.118,-0.698C0.138,-0.727 0.166,-0.75 0.202,-0.767C0.237,-0.783 0.278,-0.791 0.325,-0.791C0.36,-0.791 0.392,-0.785 0.421,-0.774C0.45,-0.763 0.476,-0.748 0.498,-0.73C0.52,-0.711 0.537,-0.692 0.549,-0.672C0.554,-0.665 0.555,-0.657 0.553,-0.649C0.55,-0.64 0.545,-0.634 0.536,-0.631C0.529,-0.628 0.521,-0.628 0.514,-0.63C0.507,-0.633 0.501,-0.637 0.496,-0.644C0.487,-0.658 0.475,-0.672 0.46,-0.685C0.445,-0.698 0.427,-0.709 0.405,-0.718C0.383,-0.727 0.356,-0.731 0.325,-0.731C0.27,-0.731 0.227,-0.719 0.196,-0.694C0.165,-0.669 0.149,-0.634 0.149,-0.589C0.149,-0.565 0.156,-0.543 0.169,-0.524C0.182,-0.504 0.202,-0.487 0.23,-0.473C0.258,-0.459 0.294,-0.448 0.337,-0.441C0.423,-0.426 0.485,-0.4 0.523,-0.362C0.56,-0.323 0.579,-0.274 0.579,-0.215C0.579,-0.18 0.573,-0.149 0.562,-0.121C0.55,-0.093 0.533,-0.069 0.511,-0.05C0.49,-0.031 0.464,-0.016 0.434,-0.006C0.404,0.005 0.371,0.01 0.334,0.01Z" style="fill-rule:nonzero;"/>
            </g>
            <g transform="matrix(300,0,0,300,1186.29,1348.86)">
                <path d="M0.563,-0C0.554,-0 0.547,-0.003 0.542,-0.009C0.536,-0.015 0.533,-0.022 0.533,-0.03L0.533,-0.299C0.533,-0.343 0.525,-0.379 0.507,-0.408C0.491,-0.437 0.467,-0.458 0.438,-0.472C0.409,-0.487 0.376,-0.494 0.34,-0.494C0.305,-0.494 0.273,-0.487 0.244,-0.473C0.215,-0.459 0.193,-0.44 0.175,-0.417C0.159,-0.393 0.15,-0.366 0.15,-0.336L0.1,-0.336C0.103,-0.377 0.115,-0.414 0.137,-0.448C0.159,-0.481 0.188,-0.506 0.223,-0.526C0.258,-0.545 0.297,-0.554 0.34,-0.554C0.389,-0.554 0.432,-0.544 0.47,-0.525C0.508,-0.505 0.538,-0.476 0.56,-0.439C0.582,-0.401 0.593,-0.354 0.593,-0.299L0.593,-0.03C0.593,-0.022 0.59,-0.015 0.584,-0.009C0.578,-0.003 0.571,-0 0.563,-0ZM0.12,-0C0.111,-0 0.104,-0.003 0.099,-0.009C0.093,-0.014 0.09,-0.021 0.09,-0.03L0.09,-0.517C0.09,-0.526 0.093,-0.533 0.099,-0.539C0.104,-0.544 0.111,-0.547 0.12,-0.547C0.129,-0.547 0.137,-0.544 0.142,-0.539C0.147,-0.533 0.15,-0.526 0.15,-0.517L0.15,-0.03C0.15,-0.021 0.147,-0.014 0.142,-0.009C0.137,-0.003 0.129,-0 0.12,-0Z" style="fill-rule:nonzero;"/>
            </g>
            <g transform="matrix(300,0,0,300,1389.39,1348.86)">
                <path d="M0.34,0.006C0.287,0.006 0.239,-0.006 0.197,-0.031C0.154,-0.055 0.121,-0.088 0.097,-0.131C0.072,-0.173 0.06,-0.22 0.06,-0.273C0.06,-0.326 0.072,-0.374 0.097,-0.417C0.121,-0.459 0.154,-0.492 0.197,-0.517C0.239,-0.541 0.287,-0.553 0.34,-0.553C0.393,-0.553 0.441,-0.541 0.483,-0.517C0.525,-0.492 0.558,-0.459 0.583,-0.417C0.607,-0.374 0.619,-0.326 0.619,-0.273C0.619,-0.22 0.607,-0.173 0.582,-0.131C0.557,-0.088 0.524,-0.055 0.483,-0.031C0.441,-0.006 0.393,0.006 0.34,0.006ZM0.34,-0.05C0.382,-0.05 0.42,-0.06 0.453,-0.08C0.486,-0.099 0.511,-0.126 0.531,-0.16C0.55,-0.193 0.559,-0.231 0.559,-0.273C0.559,-0.316 0.55,-0.354 0.531,-0.388C0.511,-0.421 0.485,-0.448 0.452,-0.468C0.419,-0.487 0.381,-0.497 0.34,-0.497C0.299,-0.497 0.261,-0.487 0.228,-0.468C0.195,-0.448 0.168,-0.421 0.149,-0.387C0.13,-0.353 0.12,-0.315 0.12,-0.273C0.12,-0.231 0.13,-0.193 0.149,-0.16C0.168,-0.126 0.195,-0.099 0.228,-0.08C0.261,-0.06 0.299,-0.05 0.34,-0.05Z" style="fill-rule:nonzero;"/>
            </g>
            <g transform="matrix(300,0,0,300,1592.49,1348.86)">
                <path d="M0.34,0.006C0.287,0.006 0.239,-0.006 0.197,-0.031C0.154,-0.055 0.121,-0.088 0.097,-0.131C0.072,-0.173 0.06,-0.22 0.06,-0.273C0.06,-0.326 0.072,-0.374 0.097,-0.417C0.121,-0.459 0.154,-0.492 0.197,-0.517C0.239,-0.541 0.287,-0.553 0.34,-0.553C0.393,-0.553 0.441,-0.541 0.483,-0.517C0.525,-0.492 0.558,-0.459 0.583,-0.417C0.607,-0.374 0.619,-0.326 0.619,-0.273C0.619,-0.22 0.607,-0.173 0.582,-0.131C0.557,-0.088 0.524,-0.055 0.483,-0.031C0.441,-0.006 0.393,0.006 0.34,0.006ZM0.34,-0.05C0.382,-0.05 0.42,-0.06 0.453,-0.08C0.486,-0.099 0.511,-0.126 0.531,-0.16C0.55,-0.193 0.559,-0.231 0.559,-0.273C0.559,-0.316 0.55,-0.354 0.531,-0.388C0.511,-0.421 0.485,-0.448 0.452,-0.468C0.419,-0.487 0.381,-0.497 0.34,-0.497C0.299,-0.497 0.261,-0.487 0.228,-0.468C0.195,-0.448 0.168,-0.421 0.149,-0.387C0.13,-0.353 0.12,-0.315 0.12,-0.273C0.12,-0.231 0.13,-0.193 0.149,-0.16C0.168,-0.126 0.195,-0.099 0.228,-0.08C0.261,-0.06 0.299,-0.05 0.34,-0.05Z" style="fill-rule:nonzero;"/>
            </g>
            <g transform="matrix(300,0,0,300,1795.59,1348.86)">
                <path d="M0.13,-0.031L0.071,-0.046L0.464,-0.536L0.506,-0.503L0.13,-0.031ZM0.092,-0C0.074,-0 0.065,-0.009 0.065,-0.027C0.065,-0.045 0.074,-0.054 0.092,-0.054L0.483,-0.054C0.501,-0.054 0.51,-0.045 0.51,-0.027C0.51,-0.009 0.501,-0 0.483,-0L0.092,-0ZM0.092,-0.493C0.074,-0.493 0.065,-0.502 0.065,-0.52C0.065,-0.538 0.074,-0.547 0.092,-0.547L0.483,-0.547C0.501,-0.547 0.51,-0.538 0.51,-0.52C0.51,-0.502 0.501,-0.493 0.483,-0.493L0.092,-0.493Z" style="fill-rule:nonzero;"/>
            </g>
            <g transform="matrix(300,0,0,300,1960.29,1348.86)">
                <path d="M0.181,0.237C0.177,0.237 0.172,0.236 0.167,0.234C0.149,0.227 0.144,0.214 0.152,0.197L0.488,-0.531C0.496,-0.548 0.508,-0.553 0.525,-0.546C0.543,-0.539 0.548,-0.526 0.54,-0.509L0.204,0.219C0.198,0.231 0.19,0.237 0.181,0.237ZM0.287,-0.013C0.278,-0.009 0.271,-0.008 0.264,-0.01C0.257,-0.012 0.252,-0.017 0.248,-0.026L0.029,-0.506C0.025,-0.515 0.024,-0.522 0.026,-0.529C0.028,-0.536 0.033,-0.541 0.042,-0.545C0.051,-0.549 0.058,-0.55 0.065,-0.548C0.072,-0.546 0.077,-0.541 0.081,-0.532L0.3,-0.052C0.304,-0.043 0.305,-0.036 0.303,-0.029C0.301,-0.022 0.296,-0.017 0.287,-0.013Z" style="fill-rule:nonzero;"/>
            </g>
        </g>
        <g transform="matrix(0.90709,0,0,4.82935,-267.911,-3949.83)">
            <g transform="matrix(300,0,0,300,2078.74,1322.83)">
                <path d="M0.13,-0C0.121,-0 0.114,-0.003 0.109,-0.009C0.103,-0.014 0.1,-0.021 0.1,-0.03L0.1,-0.751C0.1,-0.76 0.103,-0.768 0.109,-0.773C0.114,-0.778 0.121,-0.781 0.13,-0.781L0.33,-0.781C0.379,-0.781 0.422,-0.77 0.46,-0.749C0.497,-0.728 0.527,-0.698 0.548,-0.661C0.569,-0.623 0.58,-0.58 0.58,-0.531C0.58,-0.482 0.569,-0.439 0.548,-0.401C0.527,-0.363 0.497,-0.333 0.46,-0.312C0.422,-0.291 0.379,-0.28 0.33,-0.28L0.16,-0.28L0.16,-0.03C0.16,-0.021 0.157,-0.014 0.152,-0.009C0.147,-0.003 0.139,-0 0.13,-0ZM0.16,-0.34L0.33,-0.34C0.367,-0.34 0.4,-0.348 0.429,-0.365C0.457,-0.381 0.479,-0.403 0.496,-0.432C0.512,-0.461 0.52,-0.494 0.52,-0.531C0.52,-0.568 0.512,-0.601 0.496,-0.629C0.479,-0.658 0.457,-0.68 0.429,-0.697C0.4,-0.713 0.367,-0.721 0.33,-0.721L0.16,-0.721L0.16,-0.34Z" style="fill-rule:nonzero;"/>
            </g>
            <g transform="matrix(300,0,0,300,2262.34,1322.83)">
                <path d="M0.2,-0C0.175,-0 0.152,-0.007 0.133,-0.021C0.113,-0.035 0.098,-0.054 0.086,-0.079C0.076,-0.104 0.07,-0.132 0.07,-0.165L0.07,-0.751C0.07,-0.76 0.073,-0.768 0.079,-0.773C0.084,-0.778 0.091,-0.781 0.1,-0.781C0.109,-0.781 0.117,-0.778 0.122,-0.773C0.127,-0.768 0.13,-0.76 0.13,-0.751L0.13,-0.165C0.13,-0.134 0.137,-0.109 0.15,-0.09C0.163,-0.07 0.179,-0.06 0.2,-0.06L0.225,-0.06C0.232,-0.06 0.238,-0.057 0.243,-0.052C0.248,-0.047 0.25,-0.039 0.25,-0.03C0.25,-0.021 0.247,-0.014 0.242,-0.009C0.237,-0.003 0.229,-0 0.22,-0L0.2,-0Z" style="fill-rule:nonzero;"/>
            </g>
            <g transform="matrix(300,0,0,300,2337.94,1322.83)">
                <path d="M0.34,0.006C0.286,0.006 0.238,-0.006 0.196,-0.031C0.154,-0.055 0.121,-0.088 0.097,-0.131C0.072,-0.173 0.06,-0.22 0.06,-0.273C0.06,-0.326 0.072,-0.374 0.097,-0.416C0.122,-0.458 0.155,-0.491 0.197,-0.516C0.239,-0.541 0.286,-0.553 0.339,-0.553C0.392,-0.553 0.44,-0.541 0.483,-0.517C0.525,-0.492 0.558,-0.459 0.583,-0.417C0.607,-0.374 0.619,-0.326 0.619,-0.273L0.594,-0.233C0.594,-0.188 0.583,-0.148 0.561,-0.112C0.538,-0.076 0.508,-0.047 0.469,-0.026C0.431,-0.005 0.388,0.006 0.34,0.006ZM0.339,-0.05C0.382,-0.05 0.42,-0.06 0.453,-0.08C0.486,-0.099 0.511,-0.126 0.531,-0.16C0.55,-0.194 0.559,-0.232 0.559,-0.273C0.559,-0.316 0.549,-0.354 0.53,-0.387C0.511,-0.42 0.485,-0.447 0.452,-0.467C0.419,-0.487 0.381,-0.497 0.34,-0.497C0.299,-0.497 0.262,-0.487 0.229,-0.468C0.195,-0.448 0.168,-0.421 0.149,-0.388C0.13,-0.354 0.12,-0.316 0.12,-0.273C0.12,-0.231 0.13,-0.193 0.149,-0.16C0.168,-0.126 0.195,-0.099 0.228,-0.08C0.261,-0.06 0.298,-0.05 0.339,-0.05ZM0.589,-0C0.58,-0 0.573,-0.003 0.568,-0.009C0.562,-0.014 0.559,-0.021 0.559,-0.03L0.559,-0.213L0.578,-0.273L0.619,-0.273L0.619,-0.03C0.619,-0.021 0.616,-0.014 0.611,-0.009C0.606,-0.003 0.598,-0 0.589,-0Z" style="fill-rule:nonzero;"/>
            </g>
            <g transform="matrix(300,0,0,300,2541.04,1322.83)">
                <path d="M0.563,-0C0.554,-0 0.547,-0.003 0.542,-0.009C0.536,-0.015 0.533,-0.022 0.533,-0.03L0.533,-0.299C0.533,-0.343 0.525,-0.379 0.507,-0.408C0.491,-0.437 0.467,-0.458 0.438,-0.472C0.409,-0.487 0.376,-0.494 0.34,-0.494C0.305,-0.494 0.273,-0.487 0.244,-0.473C0.215,-0.459 0.193,-0.44 0.175,-0.417C0.159,-0.393 0.15,-0.366 0.15,-0.336L0.1,-0.336C0.103,-0.377 0.115,-0.414 0.137,-0.448C0.159,-0.481 0.188,-0.506 0.223,-0.526C0.258,-0.545 0.297,-0.554 0.34,-0.554C0.389,-0.554 0.432,-0.544 0.47,-0.525C0.508,-0.505 0.538,-0.476 0.56,-0.439C0.582,-0.401 0.593,-0.354 0.593,-0.299L0.593,-0.03C0.593,-0.022 0.59,-0.015 0.584,-0.009C0.578,-0.003 0.571,-0 0.563,-0ZM0.12,-0C0.111,-0 0.104,-0.003 0.099,-0.009C0.093,-0.014 0.09,-0.021 0.09,-0.03L0.09,-0.517C0.09,-0.526 0.093,-0.533 0.099,-0.539C0.104,-0.544 0.111,-0.547 0.12,-0.547C0.129,-0.547 0.137,-0.544 0.142,-0.539C0.147,-0.533 0.15,-0.526 0.15,-0.517L0.15,-0.03C0.15,-0.021 0.147,-0.014 0.142,-0.009C0.137,-0.003 0.129,-0 0.12,-0Z" style="fill-rule:nonzero;"/>
            </g>
            <g transform="matrix(300,0,0,300,2744.14,1322.83)">
                <path d="M0.314,-0C0.277,-0.001 0.245,-0.009 0.216,-0.025C0.187,-0.042 0.165,-0.065 0.149,-0.094C0.133,-0.123 0.125,-0.155 0.125,-0.192L0.125,-0.69C0.125,-0.699 0.128,-0.706 0.133,-0.712C0.138,-0.718 0.146,-0.721 0.156,-0.721C0.165,-0.721 0.172,-0.718 0.178,-0.712C0.183,-0.706 0.186,-0.699 0.186,-0.69L0.186,-0.192C0.186,-0.154 0.198,-0.123 0.222,-0.098C0.246,-0.073 0.277,-0.061 0.315,-0.061L0.337,-0.061C0.346,-0.061 0.353,-0.058 0.359,-0.053C0.365,-0.047 0.368,-0.04 0.368,-0.031C0.368,-0.022 0.365,-0.014 0.36,-0.009C0.354,-0.003 0.346,-0 0.337,-0L0.314,-0ZM0.047,-0.473C0.04,-0.473 0.033,-0.475 0.028,-0.481C0.023,-0.486 0.02,-0.492 0.02,-0.499C0.02,-0.508 0.023,-0.515 0.028,-0.52C0.033,-0.525 0.04,-0.527 0.047,-0.527L0.318,-0.527C0.325,-0.527 0.332,-0.525 0.337,-0.52C0.342,-0.515 0.345,-0.508 0.345,-0.499C0.345,-0.492 0.342,-0.486 0.337,-0.481C0.332,-0.475 0.325,-0.473 0.318,-0.473L0.047,-0.473Z" style="fill-rule:nonzero;"/>
            </g>
            <g transform="matrix(300,0,0,300,2864.74,1322.83)">
                <path d="M0.276,0.006C0.241,0.006 0.205,-0 0.167,-0.013C0.129,-0.026 0.097,-0.047 0.072,-0.077C0.067,-0.084 0.065,-0.091 0.066,-0.099C0.067,-0.106 0.071,-0.113 0.078,-0.118C0.085,-0.123 0.092,-0.124 0.1,-0.123C0.107,-0.122 0.113,-0.118 0.118,-0.112C0.137,-0.089 0.161,-0.074 0.189,-0.065C0.216,-0.056 0.246,-0.051 0.279,-0.051C0.335,-0.051 0.375,-0.061 0.398,-0.081C0.421,-0.101 0.433,-0.124 0.433,-0.151C0.433,-0.177 0.421,-0.199 0.396,-0.216C0.371,-0.233 0.332,-0.245 0.28,-0.252C0.213,-0.261 0.164,-0.279 0.132,-0.306C0.1,-0.333 0.084,-0.364 0.084,-0.399C0.084,-0.432 0.092,-0.461 0.109,-0.484C0.126,-0.506 0.149,-0.524 0.178,-0.536C0.206,-0.547 0.24,-0.553 0.277,-0.553C0.322,-0.553 0.361,-0.545 0.392,-0.529C0.423,-0.512 0.449,-0.49 0.468,-0.463C0.473,-0.456 0.475,-0.449 0.473,-0.442C0.472,-0.434 0.467,-0.428 0.458,-0.423C0.451,-0.42 0.444,-0.419 0.437,-0.42C0.43,-0.421 0.423,-0.425 0.418,-0.432C0.401,-0.453 0.381,-0.469 0.358,-0.481C0.334,-0.492 0.306,-0.497 0.275,-0.497C0.233,-0.497 0.2,-0.488 0.177,-0.47C0.154,-0.452 0.142,-0.43 0.142,-0.405C0.142,-0.388 0.147,-0.373 0.157,-0.36C0.166,-0.346 0.182,-0.336 0.204,-0.327C0.226,-0.318 0.255,-0.31 0.292,-0.305C0.342,-0.298 0.382,-0.287 0.41,-0.271C0.44,-0.255 0.46,-0.236 0.472,-0.216C0.485,-0.195 0.491,-0.172 0.491,-0.148C0.491,-0.117 0.481,-0.089 0.461,-0.066C0.441,-0.043 0.415,-0.025 0.382,-0.013C0.349,-0 0.314,0.006 0.276,0.006Z" style="fill-rule:nonzero;"/>
            </g>
        </g>
        <g transform="matrix(1.40675,0,0,7.48955,-734.538,-6638.01)">
            <g transform="matrix(83.3333,0,0,83.3333,2078.74,1322.83)">
                <path d="M0.368,0.006C0.316,0.006 0.269,-0.006 0.228,-0.03C0.186,-0.054 0.153,-0.087 0.129,-0.128C0.104,-0.169 0.091,-0.216 0.09,-0.268L0.09,-0.751C0.09,-0.76 0.093,-0.767 0.099,-0.773C0.104,-0.778 0.111,-0.781 0.12,-0.781C0.129,-0.781 0.137,-0.778 0.142,-0.773C0.147,-0.767 0.15,-0.76 0.15,-0.751L0.15,-0.439C0.171,-0.474 0.201,-0.501 0.239,-0.522C0.278,-0.543 0.321,-0.553 0.369,-0.553C0.423,-0.553 0.471,-0.541 0.513,-0.517C0.555,-0.492 0.588,-0.459 0.613,-0.417C0.637,-0.374 0.649,-0.327 0.649,-0.274C0.649,-0.221 0.637,-0.173 0.612,-0.131C0.587,-0.089 0.554,-0.056 0.512,-0.031C0.47,-0.006 0.422,0.006 0.368,0.006ZM0.368,-0.05C0.411,-0.05 0.449,-0.06 0.482,-0.08C0.515,-0.099 0.541,-0.126 0.56,-0.16C0.579,-0.193 0.589,-0.231 0.589,-0.274C0.589,-0.317 0.579,-0.355 0.56,-0.388C0.541,-0.421 0.514,-0.448 0.481,-0.468C0.448,-0.487 0.41,-0.497 0.369,-0.497C0.328,-0.497 0.291,-0.487 0.258,-0.468C0.224,-0.448 0.198,-0.421 0.179,-0.388C0.16,-0.355 0.15,-0.317 0.15,-0.274C0.15,-0.231 0.16,-0.193 0.179,-0.16C0.198,-0.126 0.224,-0.099 0.257,-0.08C0.29,-0.06 0.327,-0.05 0.368,-0.05Z" style="fill:rgb(125,125,125);fill-rule:nonzero;"/>
            </g>
            <g transform="matrix(83.3333,0,0,83.3333,2137.66,1322.83)">
                <path d="M0.332,0.005C0.279,0.005 0.233,-0.007 0.192,-0.031C0.151,-0.054 0.118,-0.087 0.095,-0.129C0.072,-0.171 0.06,-0.219 0.06,-0.273C0.06,-0.328 0.071,-0.376 0.093,-0.418C0.115,-0.459 0.145,-0.492 0.184,-0.516C0.223,-0.54 0.267,-0.552 0.317,-0.552C0.366,-0.552 0.41,-0.541 0.448,-0.518C0.486,-0.495 0.516,-0.463 0.537,-0.423C0.558,-0.382 0.569,-0.336 0.569,-0.283C0.569,-0.274 0.566,-0.268 0.561,-0.263C0.556,-0.258 0.549,-0.255 0.54,-0.255L0.1,-0.255L0.1,-0.307L0.556,-0.307L0.512,-0.274C0.513,-0.317 0.506,-0.356 0.49,-0.389C0.474,-0.422 0.451,-0.449 0.422,-0.468C0.392,-0.487 0.357,-0.496 0.317,-0.496C0.279,-0.496 0.245,-0.487 0.216,-0.468C0.186,-0.449 0.163,-0.422 0.146,-0.389C0.129,-0.356 0.12,-0.317 0.12,-0.273C0.12,-0.23 0.129,-0.191 0.147,-0.158C0.165,-0.125 0.19,-0.099 0.222,-0.08C0.254,-0.061 0.291,-0.051 0.332,-0.051C0.358,-0.051 0.384,-0.056 0.41,-0.065C0.437,-0.074 0.458,-0.085 0.473,-0.1C0.478,-0.105 0.485,-0.108 0.493,-0.109C0.5,-0.109 0.507,-0.107 0.512,-0.102C0.519,-0.096 0.523,-0.089 0.524,-0.082C0.524,-0.075 0.521,-0.068 0.514,-0.062C0.493,-0.043 0.465,-0.027 0.431,-0.014C0.396,-0.001 0.363,0.005 0.332,0.005Z" style="fill:rgb(125,125,125);fill-rule:nonzero;"/>
            </g>
            <g transform="matrix(83.3333,0,0,83.3333,2188.82,1322.83)">
                <path d="M0.314,-0C0.277,-0.001 0.245,-0.009 0.216,-0.025C0.187,-0.042 0.165,-0.065 0.149,-0.094C0.133,-0.123 0.125,-0.155 0.125,-0.192L0.125,-0.69C0.125,-0.699 0.128,-0.706 0.133,-0.712C0.138,-0.718 0.146,-0.721 0.156,-0.721C0.165,-0.721 0.172,-0.718 0.178,-0.712C0.183,-0.706 0.186,-0.699 0.186,-0.69L0.186,-0.192C0.186,-0.154 0.198,-0.123 0.222,-0.098C0.246,-0.073 0.277,-0.061 0.315,-0.061L0.337,-0.061C0.346,-0.061 0.353,-0.058 0.359,-0.053C0.365,-0.047 0.368,-0.04 0.368,-0.031C0.368,-0.022 0.365,-0.014 0.36,-0.009C0.354,-0.003 0.346,-0 0.337,-0L0.314,-0ZM0.047,-0.473C0.04,-0.473 0.033,-0.475 0.028,-0.481C0.023,-0.486 0.02,-0.492 0.02,-0.499C0.02,-0.508 0.023,-0.515 0.028,-0.52C0.033,-0.525 0.04,-0.527 0.047,-0.527L0.318,-0.527C0.325,-0.527 0.332,-0.525 0.337,-0.52C0.342,-0.515 0.345,-0.508 0.345,-0.499C0.345,-0.492 0.342,-0.486 0.337,-0.481C0.332,-0.475 0.325,-0.473 0.318,-0.473L0.047,-0.473Z" style="fill:rgb(125,125,125);fill-rule:nonzero;"/>
            </g>
            <g transform="matrix(83.3333,0,0,83.3333,2222.32,1322.83)">
                <path d="M0.34,0.006C0.286,0.006 0.238,-0.006 0.196,-0.031C0.154,-0.055 0.121,-0.088 0.097,-0.131C0.072,-0.173 0.06,-0.22 0.06,-0.273C0.06,-0.326 0.072,-0.374 0.097,-0.416C0.122,-0.458 0.155,-0.491 0.197,-0.516C0.239,-0.541 0.286,-0.553 0.339,-0.553C0.392,-0.553 0.44,-0.541 0.483,-0.517C0.525,-0.492 0.558,-0.459 0.583,-0.417C0.607,-0.374 0.619,-0.326 0.619,-0.273L0.594,-0.233C0.594,-0.188 0.583,-0.148 0.561,-0.112C0.538,-0.076 0.508,-0.047 0.469,-0.026C0.431,-0.005 0.388,0.006 0.34,0.006ZM0.339,-0.05C0.382,-0.05 0.42,-0.06 0.453,-0.08C0.486,-0.099 0.511,-0.126 0.531,-0.16C0.55,-0.194 0.559,-0.232 0.559,-0.273C0.559,-0.316 0.549,-0.354 0.53,-0.387C0.511,-0.42 0.485,-0.447 0.452,-0.467C0.419,-0.487 0.381,-0.497 0.34,-0.497C0.299,-0.497 0.262,-0.487 0.229,-0.468C0.195,-0.448 0.168,-0.421 0.149,-0.388C0.13,-0.354 0.12,-0.316 0.12,-0.273C0.12,-0.231 0.13,-0.193 0.149,-0.16C0.168,-0.126 0.195,-0.099 0.228,-0.08C0.261,-0.06 0.298,-0.05 0.339,-0.05ZM0.589,-0C0.58,-0 0.573,-0.003 0.568,-0.009C0.562,-0.014 0.559,-0.021 0.559,-0.03L0.559,-0.213L0.578,-0.273L0.619,-0.273L0.619,-0.03C0.619,-0.021 0.616,-0.014 0.611,-0.009C0.606,-0.003 0.598,-0 0.589,-0Z" style="fill:rgb(125,125,125);fill-rule:nonzero;"/>
            </g>
        </g>
    </g>
</svg>
